<?xml version="1.0" encoding="UTF-8"?>
<svg id="_レイヤー_1" data-name="レイヤー_1" xmlns="http://www.w3.org/2000/svg" version="1.1" viewBox="0 0 339.58 455.33">
  <!-- Generator: Adobe Illustrator 30.4.0, SVG Export Plug-In . SVG Version: 2.1.4 Build 226)  -->
  <defs>
    <style>
      .st0 {
        fill: #4f4200;
      }
    </style>
  </defs>
  <g>
    <path class="st0" d="M308.56,291.7c-.29-3.39.77-7.01-.67-10-4.87-2.68-5.04-6.4-9.32-6.33l-24.84.4-23.17,1.52-24.38.86c-7.15.25-13.85.29-20.85.27l-12.17-.04-14.46.69c-12.35.59-24.33.35-36.72,1.48-8.2.75-15.9.66-23.98.8l-24.66.44-22.47.59c-5.3.14-10.32-.16-15.6.04l-10.54.39c-3.35.12-7.19-1.4-10.12.77-1.17.87-.59,3.53-.34,4.71.84,4.04-.19,7.73.17,11.64l2.5,26.67,1.21,11.34c1.22,11.4,2.44,22.59,8.05,32.78,3.73,6.77,7.85,13.04,12.64,19.21,5.68,7.32,12.77,13.42,20.17,18.97l9.82,6.09,11.83,4.82c8.35,3.4,16.56,5.79,25.46,6.94l18.98,2.44c14.11,1.81,27.63,1.12,41.67-.87,13.98-1.98,27.47-3.65,41.14-6.94,14.2-3.41,26.24-10,37-19.87l9.1-8.34,2.91-4.1c1.38-1.94,3.1-3.91,5.18-5.49l12.47-18.47,4.18-7.62c3.39-4.94,5.1-10.28,5.81-16.14l1.96-6.64,1-6.91c1.74-12.1,2.1-23.84,1.05-36.09ZM222.37,283.06c-.02.13-.03.27-.04.4l-.29.03c.12-.17.23-.31.34-.43ZM274.59,381.88l-6.64,7.73c-11.52,13.41-27.41,24.85-44.91,28.13l-21.52,4.02-24.75,3.24c-14.97,1.96-41.93-.92-57.19-4.4-8.79-2-17.05-5.34-25.32-8.81l-9.2-5.82-9.14-7.11c-4.92-3.82-8.74-8.86-12.54-13.73l-.91-1.17c-13.57-17.39-14.9-25.17-17.44-45.45l-2.2-17.55-1.84-19.25-.3-9.07c-.04-1.16-.12-1.94.64-2.74.6-.64,1.33-.16,2.25-.24l18.55-1.64,11.24-.55,10.62-.49,22.45-.09,28.07-.26,6.56-.49,3.11-.59,12.77-.61,10.61-.31,8.41-.21,6.87-.26h4.45s-1.7-.8-1.7-.8c.55.2,1.12.46,1.7.8l8.35-.57,13.71.24,6.79.21,7.91-.21c-.71-.54-.81-.87-.68-1.04.24.16.47.5.68,1.04l29.78-1.24,7.11-.62,35.12-1.15c1.86-.06,3.2.61,4.51,1.52l.14,9.7.68,6.82.1,14.6-.61,6.88-.88,5.45-2.79,14.51-2.57,8.93c-.61.64-1.04,1.77-.58,2.68-1.87.96-2.26,3.12-3.42,4.88-1.97,2.97-4.07,5.77-4.72,9.21l-11.3,15.9ZM258.71,281.54c.64.08,1.28.2,1.91.36-.62-.11-1.13.02-1.91-.36Z"/>
    <path class="st0" d="M200.23,162.92l-14.58,1.39c-1.59.15-2.51,1.36-2.29,2.86.12.82,1.72,1.82,2.95,1.75l15.07-.85c6.3,14.37,26.19,19.67,41.64,20.06,16.68.42,29.24-.5,39.56-14.4,1.15-1.54,2.45-2.62,2.86-4.4.5-2.17,2.2-3.45,4.41-3.62l14.85-1.17c.5-2.25-.57-3.58-1.92-4.71-2.75-2.28-9.56,1.6-15.97.49,1.12-5.77-4.48-10.68-9.79-12.58l-9.62-3.44c-12.01-2.49-24.29-4.01-36.56-2.61l-7.08,1.7c-5.25,1.26-10.63,3.52-14.89,6.83-4.1,3.18-6.05,8.2-8.64,12.71ZM265.16,176.56l-6.27,2.27-5.94.9-8.66-.36c-6,.47-11.5-.74-17.24-1.95-5.89-1.24-13.08-4.53-13.91-9.75l18.2-.06,4.48.06,15.3-.08c3.7-.02,6.9.04,10.62-.04l13.09-.28c-2.46,4.22-5.48,7.76-9.68,9.28ZM212.04,160.86c6.15-7.09,14.47-10.59,23.66-12.1,6.3-1.03,12.32-.36,18.66.46,5.3.69,10.24,1.75,14.76,4.73,2.79,1.84,6.82,4.42,6.32,6.39-.15.6-.82,1.52-1.92,1.56l-20.69.84-39.35.17c-.73,0-1.09-.05-1.38-.34-.38-.38-.44-1.27-.06-1.71Z"/>
    <path class="st0" d="M61.81,153.45c-4.44-1.57-9.62-2.27-14.31-1.19-8.13,1.88-16.29,6.88-14.78,14.65.48,2.49.85,4.8,2.94,6.72,7.84,7.19,9.84,6.82,19.36,5.9,1.48-.14,2.64-.02,3.88-.64l3.72-1.86c1.41-.71,2.23-1.79,3.29-3.03,1.41-1.64,3.81-3.37,4.43-5.73,1.72-6.55-2.22-12.6-8.52-14.83ZM53.17,174.33c-5.65-.11-9.76-1.93-13.06-6.2-.63-3.48,1.77-7.28,5.52-8.32,3.25-3.17,12.31-1.42,15.7,2.36,2.9,3.25-1.94,9.86-8.15,12.16Z"/>
    <path class="st0" d="M46.24,214.1c6.78.37,20.43-3.49,22.64-9.21,2.17-5.61-1.41-11.75-6.18-14.81-4.32-1.85-8.72-1.54-13.26-1.08-7.57.78-14.02,4.65-17.4,11.41-1.07,2.14-1.63,3.79-.06,6.18,3.04,4.62,8.47,7.19,14.26,7.51ZM42.03,198.6c3.37-3.73,8.02-4.52,13.01-3.34,2.89.69,7.25,2.76,6.6,6.58-.43,2.51-4.48,6.02-7.16,6.03l-9.67.03c-2.41,0-4.36-1.65-4.92-3.44-.79-2.5.59-4.14,2.15-5.86Z"/>
    <path class="st0" d="M113.35,182.57c-10.56-.59-23.11,2.95-24.46,13.73-.32,2.59-.52,5.46,1.26,7.38,1.52,1.64,2.72,3.63,4.96,4.17,6.59,5.75,19.13,3.63,24.74-2.12l2.54-2.6c3.54-3.62,3.48-8.78,1.17-13.54-1.78-3.69-5.87-6.78-10.21-7.03ZM108.97,205.11c-3.91-3.06-9.77.32-12.29-3.42-1.03-1.53.15-4,1.26-4.97,1.32-1.16,2.19-2.73,3.63-3.48,4.29-2.23,11.78-4.19,14.1-1.54,3.08,3.53-1.6,10.57-6.71,13.41Z"/>
    <path class="st0" d="M116.91,152.79c-7.58-4.51-18.31-1.52-26.05,2.83-1.43.8-1.81,2.48-2.59,3.55-2.82,3.83-1.76,7.85-.11,12,3.51,8.84,19.81,11.63,29.64,6.41,2.32-1.23,4.27-4.76,5.14-7.24,2.23-6.3-.32-14.15-6.04-17.55ZM109.83,173.99c-2.91,1.33-12.34-.98-15.8-4.13-1.35-4.58,3.12-9.94,7.25-11.28.19-.06.38-.12.56-.16,2.51-.59,5.58-1.37,8.11-.53,3.46,1.15,5.07,4.84,5.1,8.1.02,3.29-2.03,6.53-5.23,8Z"/>
    <path class="st0" d="M90.68,138.16c.42,1.49,2.37,1.46,3.08,2.13,4.32,4.04,16.65,2.7,22.13-1.26,2.03-1.47,4.71-3.16,5.51-5.78l1.73-5.67-1.22-2.37c-1.56-5.61-6.15-9.65-11.82-10.47-6.16-3.79-18.46-2.37-22.26,3.21-1.72,2.53-3.55,6.23-3.64,9.73-.11,4.3,2.89,9.35,6.49,10.48ZM113.47,130.93c-3.5,3.91-9.09,5.13-13.98,3.05-2.18.19-3.98-.82-4.87-2.38-.97-1.7-.95-3.82.36-5.48l2.83-3.59,6.28-1.44c1.13-.26,2.57.74,3.79-.3-.58.06-.78-.18-.69-.44.24.13.47.27.69.44,1.98.17,3.87.56,5.44,1.86,2.51,2.08,2.33,5.83.15,8.28Z"/>
    <path class="st0" d="M137.32,73.8c.71.93.74,3,2.26,3.34l3.44,5.76c1.51,2.52,4.28,3.71,6.39,5.37,7.8,6.2,19.23,5.73,28.92,5.35,10.09-.39,22.09-8.73,26.06-18.34,4.95-11.98,5.61-15.7,2.32-28.82-.94-3.75-3.21-7.39-5.52-10.52-5.44-7.38-19.75-11.35-29.17-11.62-.37-.02-.73-.02-1.08,0-9.83.06-19.78,4.72-26.84,11.68-8.23,8.11-13.2,15.16-10.38,27.47.85,3.71,1.11,7.05,3.6,10.33ZM149.95,39.61c1.16.16,1.67-.69,2.5-1.37,7.14-5.84,20.08-8.87,29.75-6.43,2.83.71,5.45,1.29,7.76,2.96l3.96,2.87,4.12,6.52c.4,1.34,1.01,2.64,1.94,3.75,1.88,11.81,2.99,16.82-4.37,27.72-3.84,5.69-9.04,8.81-15.39,10.39-12.26,3.05-25.98.59-32.65-10.07-.35-.55-.52-1.35-1.34-1.62-2.13-3.77-3.82-7.98-4.18-12.4l-.44-5.41c-.58-7.09,4.06-12.22,8.35-16.91Z"/>
    <path class="st0" d="M74.72,136.35l-.05,4.35.08,2.52-.37,8.85.3,19.7.12,7.55c0,.18.04.41,0,.59-.28,1.52-.3,3.23.34,4.57l-.51,3,.29,27.58.14,3.63.02,8.14-.37,12.38c-.05,1.58,2.09,2.64,3.28,2.5,1.31-.16,3.49-.69,3.51-2.29l.1-7.61c.04-2.71.46-5.03-.13-7.43-.09-.38,0-1.01.06-1.4.13-1.01-.04-2.01-.05-3.01v-.54s-.03-2.69-.03-2.69l.04-.44v-34.47s-.31-10.67-.31-10.67l-.02-.59.32-7.4c.1-2.3.43-4.77-.49-6.91l-.17-4.96.03-4.27.02-.72.1-1.28v-9.88s-.04-6.89-.04-6.89l.38-11.86-.34-6.89c-.1-1.94-1.15-3.07-2.26-3.86-1.02-.73-4.68-1-4.71.57l-.31,15.73c-.04,2.15-.45,3.74.43,6.15.94,2.56.36,5.75.59,8.27Z"/>
    <path class="st0" d="M33.22,131.04c3.66,5.81,9.16,9.24,15.94,9.56,4.04.2,7.76.17,11.2-2.26,1.18-.84,2.6-1.29,3.64-2.7l3.89-5.3.31-1.41c.05-.21.11-.41.19-.61.28-.7.72-1.33,1.07-2.21l.53-1.33c.13-.33-.5-.93-1.05-.92,1.37-6.09-3.54-11.94-8.62-12.68-9.6-1.4-23.16.48-29.07,8-2.45,3.12-.86,7.37.95,10.25l1.01,1.6ZM40.1,122.82c4.96-4.52,12.43-6.72,19.39-4.42,2.88,3.41,2.86,7.95-.27,11.41-4.91,5.43-13.15,6.21-19.29.09-1.96-1.95-2.03-5.07.17-7.08Z"/>
    <path class="st0" d="M156.37,77.05c5.47,4.43,12.8,7.82,19.17,5.52,5.41-1.95,11.32-3.44,14.65-7.93,1.26-.07,1.7-1.52,2.45-2.33,2.1-2.27,3.1-4.29,3.53-7.28.42-2.95,1.03-5.75.62-8.6-.46-3.29-.81-7.69-3.23-10.35l-3.91-4.29c-3.28-3.6-16.11-5.87-22.66-4.47-6.47,1.39-12.84,5.22-16.79,10.44-3.08,4.08-2.72,9.56-2.91,14.47-.25,6.37,4.4,11.02,9.08,14.81ZM160.15,50.68c-.05.07-.11.13-.16.2h0c.06-.07.12-.14.17-.2ZM188.06,59.67l-.58,4.11c-.77,5.4-4.74,8.53-9.7,9.84-10.12,2.67-12.66,1.27-18.21-6.01-1.01-1.33-2.64-2.33-2.73-4.32-.07-1.7-.17-4.02.38-5.38l1.62-4c1.56-3.85,5.58-6.68,9.1-8.44,4.41-2.2,12.98-1.15,15.44,2.98.1.17.2.34.28.52l3.26,4.42c-.09.31.34.95.39,1.28.25,1.54,0,3.47.75,5Z"/>
    <path class="st0" d="M55.2,127.16c.72-1.08,1.46-4.05-.12-5-2.57-1.53-7.06-1.14-9.1.99-1.14,1.19-.29,2.97.27,3.74,1.58,2.2,7.06,3.07,8.95.26Z"/>
    <path class="st0" d="M47.13,162.38c-1.51,1.8-.37,4.39.97,5.72,1.48,1.47,3.68,1.46,5.48.49,1.74-.94,3.51-3.03,1.94-5.46-1.75-2.71-6.43-3.07-8.39-.75Z"/>
    <path class="st0" d="M48.67,205.03c.94.27,2,.5,3.47-.41,1.59-.98,2.37-2.73,1.61-4.1-.66-1.18-2.48-1.4-3.83-.97-1.53.48-2.6,1.35-2.83,2.62-.24,1.33.04,2.42,1.58,2.86Z"/>
    <path class="st0" d="M107.26,194.49c-1.68.29-3.31,1.36-3.57,2.96-.23,1.34.93,3.29,2.05,3.66,1.52.5,3.53-.22,4.6-1.88.91-1.42,1.32-3.07.45-3.86-.97-.89-2.16-1.1-3.53-.87Z"/>
    <path class="st0" d="M104.46,161.28c-1.41.27-3.2,2.07-3.34,3.97-.1,1.43,1.04,4.06,3.11,4.51,2.43.53,5.51-2.76,5.25-5.44-.29-2.93-2.82-3.46-5.01-3.04Z"/>
    <path class="st0" d="M98.57,126.76c-.27,1.32,2.08,5.59,4.8,5.03,1.28-.27,2.59-.44,3.18-1.76.96-.47,2.26-1.44,2.68-2.66.47-1.38-.18-2.9-1.16-3.54-.98-.64-2.27-1.18-3.47-1.13-3.58.17-5.38.86-6.02,4.05Z"/>
    <path class="st0" d="M165.98,51.08c-3.61,3.19-4.22,7.27-2.51,11.55,1.54,3.86,4.07,5.83,8.5,5.84,2.13,0,3.54.6,5.82-.58,1.41-.73,3.2-.69,4.11-2.59l1.76-3.66c1.57-3.27.23-7.07-1.79-10.12-3.13-4.71-11.69-4.15-15.89-.44ZM173.99,54.07c.66.13,1.68.59,2.11,1.37,1.77,3.2-.01,6.29-2.86,7.88-.3.17-.76.17-1.16.21-1.26-1.03-2.43-2.17-2.67-3.74-.4-2.71,2.83-6.08,4.58-5.73Z"/>
  </g>
  <g>
    <path class="st0" d="M87.12,345.02c1.54-1.07,2.51-2.58,4.44-2.45,5.18.35,4.77,3.18,7.72,2.75.62-.09,1.99-.93,1.73-1.73-2.96-3.74-7.43-6.5-12.23-6.47-8.77,1.24-14.55,8.03-13.59,16.6.74,6.64,3.7,8.85,7.9,12.55,1.11.98,1.3,1.88,3.16,2.35,1.39.35,2.69,1.62,4.62,1.4l3.3.65,4.46-1.82c3.08-1.26,4.85-5.64,7.29-6.43-.47,1.55,1.14,1.67,1.54,2.25.73,1.06,1.75,1.59,2.69,2.3,2.47,1.88,5.68,2.27,8.14.06.41.26.96.7,1.24.51l1.17-.79c2.49-1.68,5.58-3.18,7.29-5.81,1.93-2.97,2.33-6.33,3.18-9.62.41,4.31,2.41,7.31,5.18,10.06,2.6,2.57,6.06,3.69,9.38,1.19-1.37-4.96-6.51-3.26-6.67-9.12-.01-.48-.88-1.15-.61-1.51.44-.58.84-.13,1.25-.18l6.95-.84c.7-.09,1.77-.33,2.02-.79.25-.46.63-1.78.42-2.32-.83-1.42-2.93-1.41-4.53-1.66-2.24-.35-3.96-.73-6.56.16.38-3.45.73-6.84,2.5-9.89.6-1.02,3.96-.69,4.37.41.5,1.35-1.42,2.67-.46,3.98.91,1.24,7.3,1.13,8.81-2.54-2.33-2.95-5.15-5.21-8.3-6.97l-4.4-1.28c3.11.17,5.79-1.08,8.45-2.63,1.75-1.02,2.36-2.1,3.26-3.94,1.4-2.84,3-5.8,1.58-9.16-.55-1.3-2.42-2.67-4.02-2.85-3.54-.39-7.53-1.24-9.61-4.47-1.98-3.08-.92-7.98,1.79-10.39,2.26-2.01,6.24.05,6.73,2.55-.2.47-.95,1.37-.56,1.88.72.93,7.24-.91,6.03-3.98-.8-2.02-3.91-3.78-6.01-4.53-4.71-1.68-8.83-.08-12.47,3.02-1.73,1.48-2.02,3.92-2.95,5.88-.51,1.08-.8,1.99-.39,3.33l1.56,5.06c1.31,2.37,4.46,3.4,6.82,4.09l6.19,1.81c1.51.44-.23,5.57-3.4,8.78-1.46,1.48-3.49,1.04-4.97.25-1.77-.93-1.94-2.6-2.28-4.67-.28-1.77-2.87-2.39-4.63-1.31-.69-1.69-.21-3.12.05-4.8l-.69-3.27c.47-1.57-.25-2.4-.49-3.61-.46-2.38-1.49-3.77-2.68-5.82-1.44-2.47-3.62-5.61-7.13-5.46-6.83.28-11.26,5.81-12.15,12.61l-1.12,8.54c-1.47-2.46-1.15-5.32-.63-8.15l-2.91-8.18c-.94-2.91-3.36-4.72-6.42-4.1-.64.13-1.17.66-1.26,1.12-.07.32.02,1.17.26,1.45,1.52,1.69,1.49,3.58,2.1,5.53.63,2.02,1.59,3.67,1.45,5.99l.46,2.44-3.97,2.69c-4.17-.98-7.43,1-12.6-1.28-2.81-1.23-.27-4.34-.3-6.41-.02-1.44-.57-3.35.7-4.44.9-.78,1.06-1.44,1.56-2.5,1.16-2.51,5.64-3.25,4.94-5.67-.34-1.2-4.64-1.06-6.35-.49-4.36,1.47-6.86,5.48-7.44,9.81l-1.34,10.1v8.12c0,6.69,2.03,15.13,6.25,12.82,1.15-.63,1.76-1.72,1.57-3.24l-1.38-10.99c-.08-.66,0-1.55.4-1.87.26-.22.91-.66,1.38-.55,4.48,1,12.08,1.44,16.26-.53.87,1.86.06,3.46.03,5.14-.02,1.45-.54,1.76-1.28,2.91l-1.54,2.4c-1.14.64-3.29,2.35-2.78,3.8.64,1.82,3.47,1.55,5.06,1.05,3.45-1.09,5.53-4.17,6.19-7.52l1.3-6.6,2.92,9.84c.55,1.85,2.41,2.64,4.05,1.91,2.65-1.18,1.68-5.45.24-9.22l-.28-3.88c4.03-1.96,8.74-.35,11.28-3.21-.76,2.77-1.41,4.5-1.42,7,0,1.82-1.22,3.72-2.71,4.68.33,1.41,1.84,1.17,2.75,1.5,2.75,1,4.82-.31,6.49-2.01,2.02,1.41,4.58,3.14,7.02,3.53.63.1,1.35-.25,2.24.26l-2.87.59c-3.99.82-4.43,6.71-5.25,11.36l-.72,4.09c-.2,1.16.28,2.36-.26,3.57l-.69-2.83c-1.95-8.01-10.93-12.39-18.43-8.74-2.5,1.22-4.24,3.11-5.99,5.05-3.75,4.14-3.79,7.29-2.73,12.97l-2.75.91c-1.85,2.18-3.11,4.96-5.67,6.22l-3.51,1.73-4.69-3.22c-1.92-1.85-3.1-4.67-3.66-7.26-.41-1.88,1.14-3.63,1.33-5.08.31-2.46,1.48-3.24,3.3-4.5ZM124.34,314.32c-.69.55-.8-1.52-1.29-1.74-.33-.15-.98-.21-1.53-.1l-7.66,1.47c.08-5.71,3.17-14.54,5.72-12.76,4.11,2.86,5.59,12.47,4.75,13.14ZM113.96,344.61c1.38-2.62,4.65-3.53,6.98-1.7,4.34,3.41,4.1,11.39-.28,15.04l.32,1.23c.03.13-3.49,3.53-5.51,2.97l-2.96-.82c-1.69-.47-1.56-2.94-2.29-4.13-2.74-4.44-.95-10.25,3.75-12.6Z"/>
    <path class="st0" d="M182.32,323.83c1.31,1.32,3.54.77,5.28.25-.09,1.16-1.38,1.13-2.03,1.02-2.49-.42-3.25.77-4.52,2.15-4.62,5.01-7.72,10.84-9.43,17.29-.44-.75-.56-1.3-1.14-1.45l-4.93-1.23c-1.6-.4-2.6-.83-4.42-.84-.37,0-.24-8.14,2.18-11.01,1.06-1.12,4.28.29,5,1.49.94,1.55,1.69,2.5,3.32,2.45.95-.03,3.09-.84,2.68-2.18-.86-2.8-8.12-7.08-10.49-7.47-1.63-.26-3.68.36-5.18.8-1.67.49-2.3,2.4-2.68,3.97-2.2,9.03-1.66,18.31,1.48,27.04.66,1.82,1.78,3.1,3.03,4.55,1,1.16,4.26,1.3,4.39-.32.16-2-4.23-7.26-3.61-14.62l6.32,1.15c1.7.31,2.73-.25,4.2-1.34-.96,2.93-.48,4.93,1.13,7.05.97,1.28,1.59,2.97,3.02,4.01l3.53,2.57,9.26,2.61c3.85,1.08,8.45-.28,10.79-3.72,1.27-1.86,1.7-5.19,1.2-7.33-.52-2.21-3.47-2.93-5.35-3.11-.6,3.17-1.19,6-3.49,8.16-2.22,2.09-13.91.72-14.26-7.87-.05-1.13.55-3.43,1.38-4.07,1.63-1.06,3.78-.55,5.56-.69l10.62-.85c1.27-.1,3.35-.5,3.8-2.06-.26-1.38-2.74-2.23-4.33-2.31l-5.46-.28-7.8.19,3.35-5.13c.9-1.38,2.97-1.72,4.36-2.7l3.28,1.8c1.54,1.32,3.5,2.17,5.52,1.29.62-.27.88-1.09.81-1.62-.13-.98-4.47-4.19-7.21-5.41l5.52.21c8.01.31,13.39-6.56,12.67-14.43-.23-2.55-2.29-4.1-4.21-5.44l-3.46-2.42c2.24-1.39,2.94-3.34,3.62-5.42,1.14-3.47.32-6.04-1.93-8.83-2.06-2.55-4.36-3.64-7.56-4.07-5.7-.76-11.63,1.44-13.96,7.09-1.38,3.34-1.24,7.28-1.32,10.88l-.19,8.36.71,7.43c.13,1.33-.09,3.34.95,4.4ZM191.98,289.75c1.88-1.06,4.64.32,5.95,1.55,1.63,1.52,2.13,4.16,1.34,6.49-.71,2.12-3.05,4.74-5.39,5.37l-6.66,1.81.38-5.02c-.58-3.9.7-8.15,4.36-10.2ZM187.4,309.48c.59-.59,1.89.25,2.44.15l7.08-1.24c4.86,1.13,4.59,2.38,5.4,5.52.6,2.35-.04,4.52-1.42,6.15-2.4,2.82-8.77,2.55-10.77-.95-.28-.32-1.57.08-1.98.3-.63-3.46-1.43-6.34-.74-9.94Z"/>
    <path class="st0" d="M247.78,374.69c-2.16-2.36-.16-10.02,3.87-10.3,2.52,1.16,4.45,3.35,6.04,5.43l4.61.03c3.12.02.87-5.59-5.75-8.09-2.14-.81-4.23-1.87-6.56-2.17-1.85-.23-4.49.51-5.92,1.62-1.9,1.47-2.14,3.89-3.07,6.24-2.75-5.66-8.95-9.27-15.01-7.67-4.29,1.14-6.85,4.13-8.15,7.86l-3.32,9.49c-1.25,3.56-1.05,6.8-.27,10.6l1.42,6.9c.29,1.42.7,1.98,2.27,2.46,1.25.39,4.43-.09,4.07-1.82-.4-1.91-1.22-3.54-1.26-5.74-.04-2.06-.95-4.35-.52-6.31.06-.29.27-.99.77-.86.95.25,1.7.83,2.36,1.26l1.24.81c.81.53,1.74.93,2.28,1.81,3.03,1.24,7.31,5.06,9.68.81-.55-1.87-3.12-1.72-3.82-2.98-.93-1.67,3.84-.99,6.21-5.95l2.1-4.38c1.07,4.82,6.23,7.38,11.13,7.35,2.09-.01,2.8,1.83,3.41,3.15.71,1.55.67,1.98.04,3.6-.47,1.22-.55,2.9-1.91,3.54-1.77.84-4.73-.36-5.89-1.78-.69-.84.09-1.65.01-2.54-.18-2.06-2.55-4.26-4.58-3.75-2.03.51-2.63,2.89-2.84,4.48-.24,1.91.74,3.68,2.27,5.03,1.81,1.6,4.31,2.13,6.46,3.17,1.53.75,2.82.73,4.46,1.02,3.25.58,6.66-.38,8.01-3.75l2.37-5.89c1.07-2.65-.52-5.35-2.51-7.32-5.05-5.01-12.05-3.58-13.7-5.38ZM232.26,375.43c-2.54,3.42-6.53,3.13-10.95,1.71.29-3.09,1.83-5.38,2.95-7.91.66-1.5,1.36-2.18,2.57-3.32,1.45-1.36,4.34-2.11,5.73.06,1.76,2.76,1.68,6.8-.31,9.47Z"/>
    <path class="st0" d="M222.96,383.61c.14,0,.27.01.41,0-.06-.07-.25-.06-.41,0Z"/>
    <path class="st0" d="M220.66,383.24c-.14-.03-.28-.05-.43-.03.17.02.31.03.43.03Z"/>
    <path class="st0" d="M122.85,393.61c1.78-2.22.85-4.86.09-7.23-.54-1.69-.21-3.7-1.63-5.13-.73-.74-2.08-.9-2.92-1.35-3.57-1.88-6.97-1.27-10.19.81-1.76,1.14-3.16,2.34-3.89,4.75-.72-2.55-.64-5.86-2.67-7.82-3.66-3.53-8.98-4.68-13.8-5.45-3.16-.51-5.65.43-7.96,2.13-2.86,2.11-4.13,4.69-5.52,7.8-2.93,6.55-3.63,13.53-.48,20.18,1.51,3.18,4.95,5.35,8.33,3.92.81-1.2-.57-2.73-1.05-3.73-1.41-2.99-1.97-6.67-1.4-9.69.23-.69,1.62-.12,2,.29,3.34,3.61,6.92,6.65,11.13,9.15,4.09,2.42,9.29,5.23,10.97,2,2.05-3.94-5.04-2.91-11.11-7.6l-3.14-3.19c.24-.46.59-.75,1.01-.81,4.21-.63,8.18-1.54,11.68-4.13-.46,3.48.35,8.01,1.98,10.3l.35,2.21c1.33,2.23,3.77,2.67,6.01,2.38.69-.4,1.37-.35,2.09-.58l2.35-.74.34-.04c.96-.85,2.27-1.28,3.58-1.25.5-1.26,4.38-2.72,3.81-6.39l-.67-.49s.63-.2.71-.31ZM96.18,382.68c-.18,2.15-3.49,3.32-5.21,3.99-3.86,1.52-9.59,1.26-9.77,1.06-.65-.69.26-1.42.38-1.89.61-2.5,1.95-4.08,3.29-5.98,1.62-2.29,3.52-3.31,6.51-2.36,2.02.64,5.03,2.49,4.8,5.17ZM117,390.78c-.86,4.87-4.51,7.42-6.53,6-3.03-2.14-.71-11.73,3.38-12.59,2.18-.46,3.55,4.3,3.14,6.6Z"/>
    <path class="st0" d="M172.26,373.15c-4.78-4.23-11.74-9.09-17.11-5.13-2.34,1.73-3.96,5.45-3.2,8.61,1.29,5.37,6.57,8.25,12.03,7.58.58,2.62,1.22,5.28.26,7.61-1.07,2.59-3.05,5.24-5.99,5.06-2.05-.13-4.41-1.75-5.52-3.42-.66-1,0-2.89.73-3.46,1.17-.91,2.02-1.47,2.61-3.13-1.28-.37-2.29-1.43-3.37-2.23-1.03.15-2.48,1.12-3.73.64.26-7.09-1.22-12.42-8.35-13.68-2.11-.37-3.33-.21-5.25.5-2.29.85-4.06,1.74-5.59,3.82-3.31,4.51-5.72,9.77-5.01,15.54l.89,1.16c.25.33-2.81,1.11-.66,6.19.66,1.56,2.4,2.14,4.46,2.65.97.25,2.96-.92,2.8-1.84-1.43-2.42-1.4-4.17-.85-6.78.35-1.68-.21-3.75.68-5.39l9.27.43c-.88,4.58-3.53,10.28-5.75,7.62-.26-.07-.78.39-.75.64.31,3.37,5.63,5.49,8.63,3.53l3.21-4.34c1.86,2.27,4.26,3.38,5.75,5.02l7.81,1.86c5.81,1.38,11.77-6.6,11.58-15.6-.05-2.15-.07-4.03-2.15-5.4-4.53-2.98-9.25-1.69-10.37-2.95-1.86-2.09.64-6.01,2.44-6.42,1.89-.43,3.84,1.43,4.71,2.94.11.79-.27,1.78.14,2.55,2.26.56,5.26.02,6.34-2.22.18-.38-.72-1.35-.39-1.68.08-.15-.11-.41-.3-.29ZM142.39,378.87l-.42.55c-.11,1.58.15,3.19-.31,4.68l-8.02-1.27c.54-2.63,3.84-6.14,4.99-6.31.65-.09,1.01.13,1.64.54l1.78,1.16c.28.18.44.52.35.65Z"/>
    <path class="st0" d="M223.69,313.65c1.62,2.68,5.09,4.07,8.16,2.65,1.31-.61,3.55-2.59,3.96-4.12,2.16-8.02,3.57-16.91-2.41-22.72-2-1.95-5.18-4.13-7.82-3.84l-5.16.57c-1.38.22-2.31,2.49-3.13,3.29-1.53,1.5-2.09,2.94-2.83,4.82-2.79,7.13-3.91,14.78,1.3,20.67.86.97,2,2,3.24,1.96.94-.03,3.11-1.14,2.81-2.09-2.24-3.99-3.91-11.26-2.38-11.58l10.65-2.25c.94,6.3-1.05,13.84-6.38,12.65ZM219.35,298.19c1.01-3.51,2.84-5.99,5-8.88,1.76.83,3.62,2.09,4.3,3.94l1.28,3.48c-3.89.19-6.94.35-10.58,1.46Z"/>
    <path class="st0" d="M166.95,321.15c-1.36-4.11-2.53-8.32-1.19-12.56l7.08-.37c.47,2.53.31,5.15-.71,7.44-.62,1.39-1.51,1.68-2.83,2.25-2.2.95,3.97,4.14,6.76,2.1,2.17-1.58,4.02-5.08,3.92-8.06-.18-5.01-1.9-9.96-3.68-14.72-1.09-2.92-5.3-5.99-8.82-5.39-1.94.33-4.37,1.71-5.08,3.5l-1.62,4.14c-1.3,3.32-1.2,6.91-1.57,10.44-.46,4.31-.35,8.64,1.49,12.63.44.95,2.16,1.08,3.11,1.18,1.52.16,3.71-.85,3.13-2.59ZM168.36,296.58c1.56,2.23,2.53,4.38,3.2,7.2-1.98.82-3.6.4-5.45.55-.28-2.78.48-5.25,2.24-7.76Z"/>
    <path class="st0" d="M206.38,341.18c-.2,4.35,2.59,9.12,6.84,10.52l5.14,1.07c3.55.74,11.36-.66,11.36-2.51,0-1.68-1.34-2.66-2.37-3.08-1.57-.64-2.67.06-4.25.11l-5.14.19c-1.21.04-2.43-.67-3.62-.06-1.98-3.79-1.54-7.66.22-7.62l12.62.25c.78.02,1.35-1.05,1.35-1.56.01-3.9-8.74-2.46-13.35-4.11,1.96-3.88,3.84-6.96,7.22-6.11.98.25,1.42,1.12,2.31,1.92.72.65,2.34.01,2.9-.4,3.26-2.39-4.62-7.81-10.66-6.94-1.66.24-3.9,1.95-4.9,3.21-3.53,4.4-5.41,9.48-5.67,15.13Z"/>
    <path class="st0" d="M206.92,366.95c-2.1-1.01-3.51-.79-5.68-.36-1.09.22-2.28-.36-3.19,1.14-2.92,4.82-4.95,10.54-5.24,16.21-.12,2.45,1.14,3.76,2.49,5.15,2.47,2.55,5.4,3.71,9.15,3.38,2.83-.25,5.24-2.2,6.43-4.81l-1.64-2.83c-.75-1.3-3.98-1.3-4.77.03-.68,1.14-1.13,2.1-2.19,2.24-.77.1-2.22-.37-2.34-1.3-.24-1.85.12-3.62.74-4.96,3.32.98,5.9.71,8.57.29.67-.54,1.2-1.06,1.18-1.69-.08-2.2-4.74-2.83-8.4-3.62.48-1.93,1.61-3.88,3.25-4.46,1.53-.54,1.97,1.26,2.66,2.06,1.07,1.25,4.16,1.15,5.05-.05,1.51-2.03-2.62-4.78-6.06-6.43Z"/>
    <path class="st0" d="M193.83,372.54c.7-.93-1.09-2.61-2.16-2.76-3.11-.43-6.38-.61-9.61-.45l-7.41.37c-.77.04-1.59.65-1.97,1-.57.51-.52,1.71-.42,2.45.44-.83.77-.6.3.29,1.85,1.13,3.94,1.86,6.21.91.64.81.61,1.66.43,2.58-1,5-1.16,9.82.11,14.53.67.55.9,1.42.91,2.29.02,1.91,1.04,4.11,3.03,4.32.61-.95,1.43-1.88,2.6-2.12.88-1.9-.86-4.88-.7-7.96l.44-8.2,1-5.77c2.44.71,5.6.71,7.25-1.47Z"/>
    <path class="st0" d="M172.26,373.15c.19-.12.38.14.3.29.47-.89.15-1.12-.3-.29Z"/>
    <path class="st0" d="M285.02,366.9c-.31-4.68-3.24-8.3-8.15-8.18-2.03.05-4.61.84-6.12,2.34-2.65,2.63-2.87,6.21-2.12,9.8.6,2.88,3.03,4.9,5.76,6.28,1.71-1.43,3.46-1.2,5.1-1.55,4.08-.88,5.78-4.9,5.53-8.69ZM273.11,366.43l.3,6.95c-2.37-.59-2.98-2.48-3.16-4.74-.23-3.03.49-5.9,3.67-7.05-.65,1.67-.89,3.09-.81,4.83ZM276.58,362.94c1.1-.43,3.01,1.46,2.46,2.67-.81,1.79-3.17,1.25-4.32.44.31-1.17.71-2.66,1.86-3.11ZM275.18,374.22c1.75-1.34-.58-2.54.15-5.11l5.88,3.36c-1.51,1.89-3.84,2.09-6.03,1.76ZM282.19,371.79c-.83-.55-1.19-1.18-1.27-2.54-.84-.13-1.27-.11-1.93-.64,1.82-1.26,2.11-2.57,2.25-4.8,2.23,2.35,2.51,5.32.96,7.98Z"/>
  </g>
</svg>