<?xml version="1.0" encoding="UTF-8"?>
<svg id="_レイヤー_1" xmlns="http://www.w3.org/2000/svg" version="1.1" viewBox="0 0 339.58 455.33">
  <!-- Generator: Adobe Illustrator 30.4.0, SVG Export Plug-In . SVG Version: 2.1.4 Build 226)  -->
  <defs>
    <style>
      .st0 {
        fill: #4f4100;
      }
    </style>
  </defs>
  <path class="st0" d="M112.95,124.89l28.48-8.21c43.17-9.54,86.3,19.62,95.55,62.38.92,4.27-.99,7.59,2.21,10.92,13.16,13.7,16.95-43.42-44.75-75.88-49.57-26.08-112.47,3.49-131.97,56.98l-.77,19.3c-.31,7.8.83,10.47,5.51,12.17,4.94,1.79,10.86-2.75,9.1-7.72-12.01-33.87,25.88-66.82,36.64-69.93Z"/>
  <path class="st0" d="M249.79,293.24c-1.26-2.24-3.85-6.43-8.95-5.05-.17,50.96-67.62,58.46-118.04,52.07-30.46-3.86-34.36-31.32-39.03-35.72-12.75-12.01-8.09,27.45,27.06,40.85,30.8,11.74,93.95,5.78,120.57-17,9.67-8.27,22.38-28.06,18.39-35.16Z"/>
  <path class="st0" d="M156.84,139.46c-42.25-5.72-62.81,50.18-54.03,59.26,2.24,2.31,8.82,1.94,8.59-1.31-1.88-26.76,15.97-50.97,43.44-49.48,5.52.3,12.58,6.55,18.85,8.59,25.71,8.38,22.46,33.94,29.66,37.67,14.54,7.54,1.15-48.28-46.51-54.73Z"/>
  <path class="st0" d="M276.4,218.92c-6.25,18.64-3.29,42.19,9.25,58.68,18.2-16.98,7.99-61.32-9.25-58.68Z"/>
  <path class="st0" d="M122.03,290.01c-2.76.89-4.28,3.53-2.99,6.85,6.93,17.89,17.95,21.06,33.38,23.03,36.5,4.67,56.01-26.25,54.99-28.36-8.91-18.39-15.95,29.39-56.34,20.28-24.64-5.56-18.42-25.23-29.03-21.81Z"/>
  <path class="st0" d="M200.16,278.18c7.47-2.34,8.75-55.16-11.04-55.93-11.59,27.5-.6,59.58,11.04,55.93Z"/>
  <path class="st0" d="M231.31,224.96c-1.81,3.1-3.69,7.89-3.02,12.73l4.49,32.44c.45,3.27,6.04,5.79,8.19,5.38,10.67-2.06,9.52-31.74.62-54.21-2.88-1.17-8.56.72-10.28,3.66Z"/>
  <path class="st0" d="M109.96,280.03l6.06-19.84c-.26-15.96-4.97-29.4-11.96-41.71-16.92,9.67-10.64,46.25,5.9,61.54Z"/>
  <path class="st0" d="M156.48,272.37c2.19-.74,5.32-4.63,4.54-9.73l-5.23-34.22c-.51-3.37-2.84-7.21-5.08-7.74-17.12-4.08-10.69,57.24,5.76,51.69Z"/>
  <path class="st0" d="M48.77,220.79c-7.31,20.55-7.67,42.11,10.9,53.67,8.76-16.09,3.21-45.09-10.9-53.67Z"/>
</svg>