<?xml version="1.0" encoding="UTF-8"?>
<svg id="_レイヤー_1" data-name="レイヤー_1" xmlns="http://www.w3.org/2000/svg" version="1.1" viewBox="0 0 143.13 455.33">
  <!-- Generator: Adobe Illustrator 30.4.0, SVG Export Plug-In . SVG Version: 2.1.4 Build 226)  -->
  <defs>
    <style>
      .st0 {
        fill: #4f4200;
      }
    </style>
  </defs>
  <path class="st0" d="M49.18,390.03c-7.17,2.69-14.15,6.78-18.19,13.51-5.04,8.38-1.37,24.31,7.46,29.97,5.8,3.71,12.41,6.1,19.32,4.61,14.95-3.22,15.38-2.31,24.3-15.42,5.62-8.26,3.88-16.64-1.46-24.47-6.12-8.99-20.84-12.17-31.44-8.19ZM75.69,414.18c-.76,4.75-4.08,8.85-7.18,12.42-3.46,3.98-9.1,4.53-14.08,3.55-4.55.97-8.17.95-12.45-2.07-5.9-4.9-7.41-18.45-1.86-23.76-1.26,4.44-2.45,8.78-.05,13.28,2.2,4.13,7.31,8.67,12.27,9.37,5.83.82,12.75-1.17,16.79-4.48,5.27-4.32,5.5-10.34,2.69-15.4-4.67-8.4-12.78-10.99-22.37-8.83,5.84-3.57,13.95-2.79,19.38,1.3,4.47,3.37,7.75,9.06,6.86,14.62Z"/>
  <path class="st0" d="M91.71,31.91c-5.34-11.93-28.44-16.65-36.63-8.52l-7.75,7.69c-7.25-.04-13.74.35-20.65,1.69-.18,1.67.56,4.2,1.49,4.96.94.76,3.59.8,5.1.75l13.18-.4c.45,6.94,11.57,15.06,14.58,15.56,11.01,1.85,21.91-1.99,29.1-10.79l2.26-4.39,16.4.34c3.27.07,6.03-1.58,7.69-4.69l-4.25-2.53-20.52.32ZM82.59,31.43l-8.91,1.38c-5.89.91-11.65.77-17.71-.66,4.37-8.35,22.03-8.98,26.61-.72ZM57.41,44.66c-2.21-1.42-3.76-3.18-3.48-6.16,10.17,1.39,18.79,1.36,29.07.52-8.07,9.25-16.15,11.7-25.59,5.63Z"/>
  <path class="st0" d="M64.61,69.74l-10.15.96c-5.75.54-9.31,4.91-9.27,10.85.06,8.82,4.57,17.08,11.36,22.16l6,4.49.9,15.18c.09,1.44,2,4.18,3.13,5.03,1.01.76,4.08.97,5.2-.19l-.82-13.03c-.73-11.59,5.97-7.64,15.75-15.52,4.83-3.89,6.56-13.08,3.43-18.42-5.38-9.17-14.94-12.5-25.53-11.5ZM81.35,93.24c-3.26,2.66-7.41,5.65-11.06,7.06-4.57,1.77-9.12-1.32-12.15-4.21-4.67-4.46-8.18-11.51-4.7-17.67,4.73-3.39,12-2.44,17.51-2.16,5.94.3,10.51,2.46,12.64,8.04l-2.25,8.94Z"/>
  <path class="st0" d="M43.98,248.09c.72,2.75,6.28,2.26,7.2.3,2.15-4.56,4.03-8.84,8.46-11.28,2.5-1.38,5.65.05,6.47,2.56,2.53,7.73,1.97,15.4.83,23.35l-1.71,12c-.04,2.06,5.11,3.77,7.51,3.05,1.1-1.42,2.86-4.8,2.97-6.6l.75-11.94c.47-7.44,1.03-15.38-1.91-22.38-2.46-5.86-9.81-8.31-15.57-7.47-5.73.84-10.16,4.49-12.72,10.38-.96,2.2-2.88,5.76-2.28,8.02Z"/>
  <path class="st0" d="M79.55,165.54c2.18-3.46,2.6-7.04.77-10.51-1.36-2.57-4.68-5.3-8.4-5.17l-8.43.29c-3.69.13-6.27,2.97-8.42,6.22-2.91,4.39-3.59,10.91,1.85,13.95,8.01,4.46,17.95,2.66,22.63-4.78Z"/>
  <path class="st0" d="M60.28,352.49c-4.46,1.82-7.73,9.23-5.21,12.5,1.21,1.57,3.58,2.28,6.04,2.29,6.24.03,11.05-3.89,11.29-10.28.12-3.25-7.51-6.4-12.12-4.51Z"/>
  <path class="st0" d="M72.16,327.4c-1.02-2.59-4.32-4.11-7.51-4.25l-4.83-.21c-1.03-.04-1.88,2.13-2.73,3.08-1.97,2.21-2.6,4.18-1.16,6.84,1.37,2.52,3.46,4.86,5.65,5.28,2.97.57,6.1-.12,8.18-2.12,3-2.88,3.66-5.42,2.4-8.61Z"/>
  <path class="st0" d="M75.85,304.32v-4.26c-3.83-3.44-9.05-5.7-14.18-3.52-1.68.71-3.53,3.5-3.99,5.13-.47,1.66.47,4.79,2.14,5.83,5.49,3.45,12.1,1.9,16.03-3.18Z"/>
  <path class="st0" d="M41.1,191.53c-.93-1.13-3.38-2.74-3.98-1.87-2.52,4.36-.5,12.25,3.66,14.57,4.5-2.9,3.54-8.82.32-12.71Z"/>
  <path class="st0" d="M49.82,194.62c.13,3.64,2.23,7.11,4.96,9.58,3.07-1.14,4.17-3.74,3.26-6.87-.8-2.78-2.52-5.33-4.96-7.28-1.31.76-3.31,3.19-3.26,4.56Z"/>
  <path class="st0" d="M84.68,191.28c-3.47-.59-3.55,4.11-2.62,6.75.65,1.83,1.26,7,4.86,5.54,3.79-1.99,2.23-11.53-2.24-12.29Z"/>
  <path class="st0" d="M66.84,199.43l1.81,4.13c.35.79,3.61.56,4.05-.28,2.05-3.87-.84-10.81-4.72-11.35-2.87,1.03-2.02,5.5-1.14,7.51Z"/>
  <path class="st0" d="M97.7,191.03c-.8-.37-3.15,1.43-2.89,2.27l1.18,3.85c.5,1.63,3.3,5.42,4.71,4.1,3.42-3.18-.49-9.05-3-10.22Z"/>
  <path class="st0" d="M63.96,81.56c-2.33.81-4.55,4.7-2.72,7.41,1.19,1.76,5.74,3.44,7.95,2.77,2.91-.87,3.55-5.64,2.36-7.69-1.33-2.29-5.05-3.37-7.59-2.49Z"/>
</svg>