<?xml version="1.0" encoding="UTF-8"?>
<svg id="_レイヤー_1" xmlns="http://www.w3.org/2000/svg" version="1.1" viewBox="0 0 339.58 455.33">
  <!-- Generator: Adobe Illustrator 30.4.0, SVG Export Plug-In . SVG Version: 2.1.4 Build 226)  -->
  <defs>
    <style>
      .st0 {
        fill: #4f4100;
      }
    </style>
  </defs>
  <path class="st0" d="M26.12,268.53c2.71,13.49,5.42,27.6,13.49,39.75,7.64,11.5,24.22,22.4,36.54,21.99,2.45-.45,5.12-1.56,4.98-4.51-2.2-3.81-9.86-3.91-14.05-6.06-10.68-5.47-18.73-15.85-22.49-26.96l-4.36-20.86c-.92-4.4-1.02-8.3-1.16-12.86-.43-13.99,4.11-29.87,13.28-30.47-.24.02,4.97,2.43,11.67,5.1,2.64,1.05,5.8,1.66,8.13,3.39l22.23,16.54c4.58,3.41,9.12,9.82,15.3,5.59l16.36-11.17c5.35-3.66,8.07-8.51,9.97-13.79l-.35-14.11c-.05-15.85.83-38.22,6.94-52.18l2.79-13.22,2.66-4.79c1.52-2.73,3.69-6.65,7.12-8.6,6.51-3.7,14.4.35,18.85,6.44,19.77,27.07,16.16,62.59,38.49,74.36,8.79,4.64,17.82-2.07,24.45-6.36,5.86-3.79,11.82-6.84,18.17-8.68,4.51-1.31,8.96-1.96,13.48.13,2.05.95,4.57,1.87,6.41,4.52l13.21,19.02c2,2.06,1.86,5.17,2.01,8.14,2.54,1.86,1.38,7.65,3.08,10.14,2.6,3.81.46,6.98,0,10.31-2.78,19.94-11.98,35.28-27.52,48.89-5.69,4.99-14.77,4.04-22.73,6.54,4.41,9.33,17.32,11.95,26.37,8.05l10.97-4.72c11.17-4.81,29.29-34.44,33.1-52.79-.65-2.81-.78-5.85,1.21-8.13-.28-4.72-1.77-9.36-2.38-13.87-1.69-12.51-6.39-24.52-16.4-32.81-3.15-7.13-8.96-13.2-17.6-14.68l-14.81-1.51c-2.38-.24-5.29,1.27-7.99,1.06-2.9-.23-6.2-.16-8.81,1.03l-8.14,3.69-12.35,7.84c-3.34,2.12-6.88,1.69-9.48-.57l-6.24-10.67c-2.73-13.64-6.55-25.91-12.06-37.66-4.24-9.04-8.57-17.44-16.16-24.41-2.85.08-4.93-2.12-4.45-5.1-10.76-8.09-24.49-5.57-34.93,2.84-3.4,2.74-5.38,2.85-7.12,6.62-6.17,13.39-9.27,27.77-12.8,42,.4,3.39.69,6.89-1.12,9.79,1.11,13.52.11,27.12-1.63,41.54-.72,6.01-9.57,13.83-14.04,10.61-12.51-9.03-23.77-18.37-37.33-22.61-2.19-4.27-6.91-6.17-11.09-8.07-3.01-1.36-9.44-4.01-12.9-2.28-15.88,11.26-19.94,29.44-19.49,47.06,1.99,3.45,1.39,7.57.74,11.48Z"/>
</svg>