<?xml version="1.0" encoding="UTF-8"?>
<svg id="_レイヤー_1" xmlns="http://www.w3.org/2000/svg" version="1.1" viewBox="0 0 339.58 455.33">
  <!-- Generator: Adobe Illustrator 30.4.0, SVG Export Plug-In . SVG Version: 2.1.4 Build 226)  -->
  <defs>
    <style>
      .st0 {
        fill: #4f4100;
      }
    </style>
  </defs>
  <path class="st0" d="M140.75,203.32c8.36,19.14,27.92,30.68,17.9,59.94,3.8,7.07,1.33,16.17,2.06,24.3l.24,2.62c4.34,4.48,2.85,11.33,2.66,16.85l-.79,24.13,7.36,55.13c4.73,1.57,15.93,3.96,21.83-.95,7.2-5.99,3.96-17.76,4.52-24.87-3.57-4.04-3.2-9.69-2.39-14.85-1.87-2.84-3.05-9.55-2.04-12.88,2.78-9.14,1.25-18.97,1.65-28.46-1.05-.08-2.15-.86-2.58-1.87,0-.02-.02-.03-.03-.05-.49-1.2-.12-2.54-.11-3.55l.1-11.1c.12-13.73-1.99-26.91,3.21-41.03,5-13.6,6.19-28.8,14.02-41.46l17.49-18.36c15.65-21.17,35.79-35.26,59.94-45.33,6.26-2.61,13.03-7.14,14.04-15.4-10.72-3.83-21.38-.84-31.57,3.61l-34.63,15.13c-8.64,3.77-34.13,35.11-36.85,23.76l11.62-66.61c1.12-7.18,5.85-14.66,3.33-22.1-2.01-5.94-12.53-17.24-19.9-12.34-12.22,8.12-8.96,28.51-14.44,39.35.41,5.57.83,11.36-3.45,14.81-.87,6.19-6.27,13.39-1.07,21.71-7.97,15.02-3.23,27.87-6.82,48.17-19.01-29.83-42.72-45.73-74.49-50.76-5.07.61-10.4.71-14.92-2.58-11.73.97-25.39-2.79-34.21,9.36-1.32,1.81-2.7,5.97-1.99,7.58.98,2.23,5.14,2.14,6.77,2.9,11.44-.81,22.73-1.08,33.96.93,25.76,4.61,48.35,18.53,59.59,44.27Z"/>
</svg>