<?xml version="1.0" encoding="UTF-8"?>
<svg id="_レイヤー_1" xmlns="http://www.w3.org/2000/svg" version="1.1" viewBox="0 0 339.58 455.33">
  <!-- Generator: Adobe Illustrator 30.4.0, SVG Export Plug-In . SVG Version: 2.1.4 Build 226)  -->
  <defs>
    <style>
      .st0 {
        fill: #4f4100;
      }
    </style>
  </defs>
  <path class="st0" d="M200.61,283.7c-10.71-11.18-17.89-21.44-18.54-38.32-.13-3.31-4.85-7.69-7.85-8.73-3.03-1.05-10.72-.83-11.9,1.84-6.07,13.74,4.54,29.71-13.21,46.65l-21.4,20.43-18.4,19.95c-19.46,21.1-26.79,57.78-5.87,81.49,24.38,27.63,80.76,21.7,112.14-3.04l7.28-19.39c3.07-8.18,9.75-17.83,9.31-27.42-1.26-27.39-12.88-53.96-31.57-73.47ZM198.14,388.4c-4.74,8.79-15.66,13.23-23.93,17.75-4.5,2.46-8.68,2.71-15.02,3.78-14.28,2.4-28.83,3.56-39.22-7.6-13.72-14.74-13.89-36.94-4.05-54.54,6.72-12.01,15.56-22.44,25.66-31.95l17.11-16.11,13.95-18.5c10.73,11.75,22.34,23.83,28.16,38.37,12.19,30.49,13.87,38.15-2.65,68.8Z"/>
  <g>
    <path class="st0" d="M258.18,73.33c-11.86-17.44-30.08-32.28-50.22-39.56-26.48-9.57-53.08-4.47-76.86,7.44-15.5,7.76-27.3,17.13-40.16,28.29-19.19,16.65-27,42.5-14.93,66.59,11.53,23.01,34.54,50.36,58.8,40.75l2.55-9.76c9.08,8.67,30.45,5.49,46.72,3.28l32.79-4.46-27.68,16.69c-12.67,7.64-28.68,8.64-42.08,5.9l-19.4-3.96-23.15-1.74c-2.27-.17-6.57,2.4-7.61,4.28-3.77,6.83,67.14,31.95,107.19,9.41l22.2-12.5c15.71-8.84,25.99-23.25,34.46-38.79,12.65-23.22,12.84-49.13-2.61-71.85ZM201.7,150.02l-47.77,9.62-10.47-11.56c-8.3-13.01-14.38-34.11-6.7-48.75,6.66-12.7,25.39-13.49,37.32-15.67,12.8-2.34,21.36.16,31.38,6.18,10.23,6.14,16.26,13.71,17.5,26.68,1.28,13.37-4.86,30.2-21.26,33.51ZM245.03,129.93c-2.28-11.79-1.46-25.1-9.56-35.38-9.45-11.99-25.26-23.96-40.89-26.16-24-3.37-47.63,3.2-68.93,13.18-5.72,2.68-8.27,11.41-9.46,17.69-3.15,16.55,3.17,29.39,8.35,43.44,3.07,8.33,5.98,14.84,11.82,23.64l-22.32-3.1c-4.66-.65-32.93-33.61-26.67-60.77,2.74-11.9,13.12-21.35,22.77-27.45l26.93-17.03c7.91-5,17.61-9.9,27.27-10.55,13.96-.95,29-1.23,42.56,2.99,21.21,6.6,38.24,25.41,43.34,46.66,2.67,11.14-1.18,22.9-5.21,32.86Z"/>
    <path class="st0" d="M185.98,100.04c-13.8-3.03-28.25,1.63-30.69,14.82-1.65,8.93,2.3,16.67,9.15,20.8,7.55,3.71,16.75,1.81,22.18-5.17,10.25-.27,16.26-6.86,20.06-17.13-5.54-8.1-11.93-12.03-20.71-13.31Z"/>
  </g>
</svg>