<?xml version="1.0" encoding="UTF-8"?>
<svg id="_レイヤー_1" data-name="レイヤー_1" xmlns="http://www.w3.org/2000/svg" version="1.1" viewBox="0 0 339.58 455.33">
  <!-- Generator: Adobe Illustrator 30.4.0, SVG Export Plug-In . SVG Version: 2.1.4 Build 226)  -->
  <defs>
    <style>
      .st0 {
        fill: #4f4200;
      }
    </style>
  </defs>
  <path class="st0" d="M317.97,148.89c-7.44-29.06-26.86-54.09-53.82-64.33-23.09-8.77-43.9-7.24-62.65,7.77-12.3,9.85-24.86,19.48-31.24,36.12-31.84-35.07-54.66-49.64-97.88-24.87-14.25,8.17-22.11,20.87-32.77,33.84-7.97,9.69-20.64,20.07-19.72,34.62,1,15.73,3.96,32.21,10.57,47.36,11.31,25.93,47.87,39.37,72.58,25.5,19.4-10.89,25.27-33.72,34.76-50.98,9.09-16.55,14.68-31.41,7.96-49.88,10.61,5.47,5.81,18.3,9,23.68,5.39,9.1,2.49,12.12,3.16,20.99l2.87,37.69,7.21,39.49,8.19,60.09,4.46,41.64c.74,6.95,6.07,9.04,10.77,8.42,15.69-2.09,7.92-32.2,8.38-50.15.4-15.2-2.06-27.96-4.69-43.06l-10.18-58.56c-7.58-43.59-3.23-110.92,38.32-118.21,32.82-5.76,51.07,12.8,64.81,42.3,6.86,14.72,6.18,32.88-6.93,42.5,4.54-12.24,4.2-15.96.52-24.79-6.31-15.13-16.34-27.21-33.35-27.98-20.93-.94-35.84,8.58-40.53,30.4-4.34,20.19,8.33,40.6,26.5,54.01,14.85,10.96,35.5,4.6,51.3-4.78,24.36-14.46,39.58-40.82,32.4-68.83ZM114.87,172.86c-3.23,6.58-14.64,7.94-20.89,6.78-3.02-9.41,3.08-21.47,12.02-25.92,4.94.89,12.9,10.93,8.87,19.15ZM61.79,170.34c-3.66,8.95-5.24,14.91-.83,21.94,6.51,10.38,30.48,10.2,46.6,2.28-.75,15.47-12.68,25.79-23.57,34.34-24.98-5.95-34.48-27.57-33.72-50.79.33-9.91-2.73-18.91,5.99-27.64l30.19-30.24c5.66-5.67,17.21-9.74,25.47-7.76,13.97,3.35,25.67,13.16,31.59,26.02-27.1-20.7-68.28-1.02-81.71,31.86ZM250.21,177.6l-9.19,13.44c-4.73-4.59-9.66-16.84-5.32-23.46,3.17-4.84,19.01,3.43,14.51,10.02ZM254.18,200.64l26.56-9.47c-6.26,10.98-18,12.44-26.56,9.47Z"/>
  <path class="st0" d="M313.98,341.58c-3.63-7.35-47.72-13.55-68.75,3.87,25.98,20.79,74.88,8.53,68.75-3.87Z"/>
  <path class="st0" d="M134.73,358.96c-9.5-6.16-23.58-2.33-35.28-2.59-12.55-.28-25.94.76-33.39,10.66-2.19,2.91,1.77,7.13,3.95,7.53,23.31,4.31,64.68-1.39,64.72-15.6Z"/>
  <path class="st0" d="M267.01,251.18c-10.3,1.04-19.66.26-27.73,9.69,7.2,12.38,44.8,10.36,60.89-2.54.92-13.77-15.82-8.88-33.16-7.14Z"/>
  <path class="st0" d="M256.01,289.86c-5.39.94-9.29,5.19-8.01,10.03,3.1,11.76,35.22,8.27,55.32-7.22-2.91-6.62-9.29-9.46-16.79-8.14l-30.52,5.34Z"/>
  <path class="st0" d="M109.57,326.61c8.42-14.06-25.07-16.96-50.21-3.78.2,20.24,43.47,15.04,50.21,3.78Z"/>
  <path class="st0" d="M61.84,298.76c13.61,7.09,46.79,2.25,42.71-12.09-2.28-8-31.94-7.8-45.72,2.15-3.41,2.46.58,8.67,3.01,9.94Z"/>
</svg>