<?xml version="1.0" encoding="UTF-8"?>
<svg id="_レイヤー_1" data-name="レイヤー_1" xmlns="http://www.w3.org/2000/svg" version="1.1" viewBox="0 0 299.56 455.33">
  <!-- Generator: Adobe Illustrator 30.4.0, SVG Export Plug-In . SVG Version: 2.1.4 Build 226)  -->
  <defs>
    <style>
      .st0 {
        fill: #4f4200;
      }
    </style>
  </defs>
  <g>
    <path class="st0" d="M102.6,35.31l-12.37.15c-.86.01-3.36,1.38-2.77,2.38,2.69,2.57,7.1,2.63,10.67,2.47l8.86-.41c.73-.03,1.09-.93,1.15-1.26.28-1.47-2.84-3.36-5.54-3.33Z"/>
    <path class="st0" d="M94.36,44.47c-3.21.4-6.15.44-8.58,2.63,3.79,5.08,9.84,1.24,15.63,2.04,1.96.27,4.9-1.1,4.88-2.93-3.14-2.96-8.07-2.22-11.92-1.74Z"/>
    <path class="st0" d="M105.84,70.01c1.06-3.87-5-3.51-10.88-2.87-2.87.31-5.69.07-8.19,2.26,2.43,2.98,6.03,3.58,9.57,3.03l5.55-.86c1.27-.2,2.38-1.77,3.96-1.57Z"/>
    <path class="st0" d="M122.17,43.84c-3.54-.46-7.54-.76-9.67,3.07,1.22,1.02,3.16,2.05,5.08,2.17l9.71.78c.82-.98,1.57-2.15,2.39-3.19.86-3.71-5.01-2.51-7.52-2.84Z"/>
    <path class="st0" d="M129.32,56.81c-1.3-1.28-3.92-2.33-5.74-2.07l-8.57,1.19c-1.37.19-4.03,1.44-3.54,3.26.53,1.45,3.76,1.22,5.14,1.26,7.23.18,14.87-1.52,12.71-3.63Z"/>
    <path class="st0" d="M111.35,37.39c4.37,3.58,15.38,4.36,19.6.14-1.56-.33-2.52-1.75-3.34-2.84-6.27,2.1-11.84-1.22-16.26,2.7Z"/>
    <path class="st0" d="M100.1,59.09c1.52-.11,4.74-2.06,3.51-3.35-2.7-2.84-7.32-1.96-10.63-1.27-2.63.54-5.23.63-6.49,3.6,2.52.75,4.92,1.63,7.58,1.45l6.02-.42Z"/>
    <path class="st0" d="M99.58,78.64c-3.33-.35-6.73.45-10.17,1.23-1.16.26-1.78,2.84-.93,3.33,1.08.63,2.78.55,4.06.72,9.29,1.24,13.47-3,10.08-4.2l-3.05-1.08Z"/>
    <path class="st0" d="M143.51,34.73l-2.5.36c-2.1.3-4.24.11-6.11,1.27.92,1.33,1.97,2.37,3.24,2.64,3.54.74,7.54,1.25,11.14.24.94-.75-.59-3.28-1.88-3.59l-3.89-.92Z"/>
    <path class="st0" d="M138.95,115.51c-3.56-.08-6.69.15-9.36,2.85,1.72,2.86,4.73,2.98,8.16,2.92,3.82-.08,7.9,1.05,11.57-1.65-2.26-3.85-6.54-4.03-10.37-4.12Z"/>
    <path class="st0" d="M88.11,91.7c-1.05.28-1.4,1.38-1.29,2.26.1.74,1.02,1.41,2.18,1.39l14.19-.17,4.27-1.42c-3.03-4.32-13.32-3.69-19.36-2.07Z"/>
    <path class="st0" d="M96.92,113.66c-4.07-.06-8.42-.06-10.88,4.03,4.41,3.41,9.9-.15,16.19,1.49.94-1.64,1.98-2.14,3.1-3.01-2.13-2.83-5.25-2.47-8.41-2.52Z"/>
    <path class="st0" d="M91.81,107.8c3.64-.7,7.39,1.26,12.78-2.61-5.38-5.02-15.6-4.74-17.68.9,1.35.87,3.37,2.01,4.91,1.71Z"/>
    <path class="st0" d="M147.31,72.7c-.79-1.47-2.1-3.3-3.38-3.39-5.54-.42-9.94-.9-13.46,2.3,2.77,3.84,12.96,4.47,16.84,1.09Z"/>
    <path class="st0" d="M112.22,84.14c-.17.59-.25,1.95.61,2.27,4.13,1.53,13.17,1.82,16.48-1.51-3.88-3.99-16.27-3.57-17.09-.76Z"/>
    <path class="st0" d="M122.02,115.54l-7.61.62c-1.21.1-3.21,2.11-2.01,3.25,2.31,2.19,12.91,2.21,16.15-1.23-1.61-2.57-3.9-2.85-6.54-2.64Z"/>
    <path class="st0" d="M161.78,99.69c1.51-.37,4.44-.46,4.78-2.46-1.58-4.28-9.09-3.39-14.65-1.31-.74.28-.63,1.86-.19,2.11l1.34.76c3.06,1.74,5.01,1.82,8.71.9Z"/>
    <path class="st0" d="M113.24,72.88c2.45,1.23,13.55.78,14.93-2.18-1.08-4.36-10.89-3.08-15.86-.48-.68.36.32,2.36.94,2.67Z"/>
    <path class="st0" d="M133.28,59.41c.01.48.54,1.53,1.36,1.52l13.05-.17c1.23-.02,1.97-1.34,1.93-1.93-.3-4.72-16.45-2.92-16.35.58Z"/>
    <path class="st0" d="M111.51,96.94c.15,1.09.66,2.13,1.31,2.5.99.57,2.56.3,3.46.46,6.24,1.15,11.05-.86,10.81-2.86-.31-2.6-10.63-3.73-15.59-.1Z"/>
    <path class="st0" d="M131.99,98.3c.34,2.7,9.2,3.05,15.18.89.77-7.43-15.54-3.8-15.18-.89Z"/>
    <path class="st0" d="M165.9,71.15l-10.41.1c-1.76.02-3.3.62-4.28,2.54,4.68,3.35,12.84,2.58,17.88-.03-1.2-1.26-2.13-2.5-3.18-2.61Z"/>
    <path class="st0" d="M147.05,84.95h-9.97c-1.51,0-2.91,1.33-4.02,2.29,2.36,4.03,10.96,3.2,16.26.82-.25-1.94-1.25-3.1-2.27-3.1Z"/>
    <path class="st0" d="M165.32,116.12l-7.66.09c-1.91.02-4.77.51-5.79,2.12-1.33,2.11,10.12,5.21,16.88.01-1.05-2.05-2.22-2.23-3.44-2.22Z"/>
    <path class="st0" d="M131.54,105.89c-.81.33-.54,1.41-.22,1.95.41.69,1.03,1.35,2.07,1.39,6.26.25,13.13.82,12.52-2.72-.49-2.88-8.09-3.17-14.36-.61Z"/>
    <path class="st0" d="M184.98,99.54c1.05-.37,1.83-1.5,1.56-2.37-.86-2.81-10.55-3.35-16-.15,2.45,3.51,11.77,3.47,14.44,2.52Z"/>
    <path class="st0" d="M112.28,107.46c.22.41.98,1.17,1.67,1.16l10.08-.15c1.83-.03,3.24-1.39,3.56-2.84-7.11-4.64-16.56-.54-15.31,1.83Z"/>
    <path class="st0" d="M152.27,60.48c4.54,4.21,11.42,4.09,16.45.47-3.67-3.41-13.24-3.8-16.45-.47Z"/>
    <path class="st0" d="M171.67,62.9c-.32,1.06.76,3.09,1.76,3.08l10.28-.08c1.64-.01,3-1.22,3.47-2.25-4.42-3.44-10.93-3.3-15.51-.76Z"/>
    <path class="st0" d="M171.39,87.21c4.23,4.85,11.04,3.76,15.48-.52-3.51-2.99-12.99-2.6-15.48.52Z"/>
    <path class="st0" d="M186.42,105.43c-3.72-2.94-7.88-2.76-11.73-1.66-1.56-.11-3.91.66-4.02,2.53,4.54,2.99,11.39,3.16,15.75-.87Z"/>
    <path class="st0" d="M184,72.41l-9.38.48c-.99.05-2.14-.05-2.44.99-.93,3.23,9.56,5.53,15.36,1.04-1.16-1.93-2.33-2.08-3.54-2.51Z"/>
    <path class="st0" d="M171.3,117.77c.07,2.47,14.1,3.71,15.48-1.72-5.47-2.44-15.54-.78-15.48,1.72Z"/>
    <path class="st0" d="M153.67,48.43c-1.97,2.5,12.75,8.23,14.75,2.03-4.51-3.32-13.83-3.21-14.75-2.03Z"/>
    <path class="st0" d="M151.78,105.34c2.94,3.89,11.79,4.44,14.43.23-1.3-3.72-10.06-3.4-14.43-.23Z"/>
    <path class="st0" d="M167.71,85.19c-5.38-1.79-10.82-1.41-15.6,1.33,3.02,4.82,15.18,2.84,15.6-1.33Z"/>
    <path class="st0" d="M171.81,50.64c2.13,4.52,12.23,4.72,15.1,1.6-3.14-4.34-9.63-3.58-15.1-1.6Z"/>
    <path class="st0" d="M145.95,46.44c-3.9-.64-7.71-1.25-11.12,1.3,2.22,3.66,10.25,3.8,15,2.21-.6-3.22-2.06-3.22-3.88-3.52Z"/>
    <path class="st0" d="M173.41,36.85c3.16,4.33,10.46,4.85,14.5,1.4-2.32-3.99-9.62-4.04-14.5-1.4Z"/>
    <path class="st0" d="M154.22,36.38c3.17,4.44,13.92,4.68,15.23.81-4.73-3.44-10.09-2.86-15.23-.81Z"/>
  </g>
  <g>
    <path class="st0" d="M257.48,385.13c-11.85-11.08-34.2-10.61-49.93-11.58l-26.75-1.65-14.6-.56-10.36-.34-24.78.21-25.34.88-12.91-.31-26.35.45c-5.25.09-10.54,1.12-15.57,2.14-8.09,1.64-17.94,4.53-21.97,11.23-2.26,3.76-3.47,8.67-2.91,13.02.62,4.86,3.63,9.06,6.59,12.68l6.81,8.33c1.98,2.42,4.52,4.35,7.31,5.8l10.66,6.46c5.83.92,11.86,2.81,17.87,2.77l13.8-.1c7.7-.06,14.91-.34,22.93.34l31.63,2.67,14.79.52,17.84.48c7.1.19,13.88-.77,20.88-1.77,7.42-1.06,14.32-2.69,21.42-4.94l7.6-2.42,6.63-2.31c7.72-3.79,15.07-7.97,21.32-13.71,5.08-4.67,7.37-10.47,7.43-17.14.04-4.37-.68-7.99-4.03-11.13ZM244.78,410.28c-5.13,4-9.8,8-15.94,10.4l-10.39,4.05c-6.98,2.72-14.01,4.5-21.36,5.74l-8.06,1.36c-13.25,2.24-26.15.77-39.15-.04l-14.47-.91-21.68-1.73-10.86-.69-14.66-.05-19.75-.81c-4.19-.17-7.99-1.73-11.69-3.28l-6.3-2.66c-1.09-.46-3.66-1.49-4.4-2.39l-9.63-11.68c-4.11-4.99-4.8-10.93-2.26-16.68,1.43-3.23,3.11-5.84,6.54-7.37,9.78-4.37,26.32-6.46,37.7-6.28l24.56.4,24.31-.51,11.33-.09c14.95-.12,29.53.03,44.5,1.24l10.84.88,28.07,1.53c9.68.53,28.48,3.04,30.51,10.6,2.11,7.86-1.84,14.37-7.76,18.97Z"/>
    <path class="st0" d="M118.78,226.15c1.69,6.45,6.36,11.86,10.73,16.67,2.3,2.52,4.77,3.39,8.14,4.36,3.56,1.02,7.19,3.15,10.75,2.48l4.9-1.8c7.24-2.65,11.56-9.06,15.66-14.92,3.88-5.55,4.57-10.57,3.3-17-1.63-8.25-7.09-13.94-16.08-13.9l-9.26-1.38c-5.7.05-10.5,1.01-15.78,2.33-1.89.48-2.88.84-4.4,1.97l-6.18,4.62c-2.21,1.65-4.95,4.49-4.15,7.55l2.37,9.03ZM125.28,212.97c4.18-3.45,9.09-6.11,14.55-6.41,6.88-.38,13.51.2,19.94,2.21,4.51,4.13,6.27,9.9,5.41,15.9-2.76,5.84-5.97,11.77-11.35,15.49l-4.13,2.85c-2.07,1.42-4.38,1.62-6.55-.29l-7.73-6.81c-1.72.23-3.81-.15-4.82-1.52l-2.94-3.96c-2.68-5.47-5.75-14.66-2.36-17.46Z"/>
    <path class="st0" d="M155.54,313.36c-1.99-3.04-6.43-6.19-10.27-6.33-4.93-.17-10.26,1.88-14.6,4.01-2.44,1.19-3.97,3.37-4.67,5.27-1.03,2.78.14,4.6,1.24,7.24,1.74,4.18,4.56,7.32,10.07,7.41,6.09.1,12.62-1.96,17.05-6.18,2.68-2.55,3.27-8.23,1.18-11.41ZM142.3,325.42c-2.5.93-4.63,1.46-6.85.22-2.15-1.2-2.81-3.99-2.5-6.41.37-2.92,1.51-3.96,3.99-5.08,4.3-1.93,10.9-.31,11.71,5.04.56,3.66-3.86,5.3-6.35,6.23Z"/>
    <path class="st0" d="M146.92,336.31c-5.15-.6-10.89-.81-14.69,3.49-2.33,2.63-3.68,7.44-3.28,10.76.64,5.3,4.68,8.85,10.02,8.37,4.62-.42,9.73-2.73,13.52-6.15l3.68-4.78c1.38-6.4-3.16-10.98-9.25-11.69ZM148.01,348.1c-.9,3.31-6.58,5.62-9.59,4.94-2.82-.64-3.7-4.26-3.01-6.41l1.57-4.84,5.14.69c2.25.3,6.9,1.89,5.89,5.62Z"/>
    <path class="st0" d="M149.37,295.37c4.7-1.86,5.71-5.29,5.72-9.48.01-4.52-1.62-7.61-5.49-9.9-4.29-2.54-9.28-3.61-14.19-1.4l-3.45,3.97c-3.6,4.36-3.38,10.05.34,14.29.75,4.59,11.65,4.65,17.07,2.52ZM140.66,279.29c3.03.09,5.46,2.08,6.43,4.12,1.45,3.03.97,5.94-1.39,8.7l-9.41-2.66-.6-5.54c1.06-1.43,3.4-3.66,4.96-4.62Z"/>
    <path class="st0" d="M125.38,179.99c2.97-2.03.79-7.95-1.92-9.28-.75-.37-2.93-.04-3.25.81-1.04,2.72,3.68,9.48,5.17,8.47Z"/>
    <path class="st0" d="M152.66,178.19c2.17-2.23.53-7.27-2.78-8.79-.85-.39-2.71.8-3.03,1.81.21,3.06,2.68,5.9,5.81,6.98Z"/>
    <path class="st0" d="M136.17,176.5c.93.78,1.88,1.47,2.59,1.47.6,0,1.61-1.34,1.67-2.01.21-2.31-2.29-6.82-4.9-6.1-2.68.74-1.04,5.24.63,6.64Z"/>
    <path class="st0" d="M164.34,178.91c2.97-3.49.42-8.7-2.98-8.64-2.33.04-1.79,4.27-.64,5.53,1.21,1.32,2.29,2.39,3.62,3.11Z"/>
  </g>
</svg>